<svg xmlns="http://www.w3.org/2000/svg" viewBox="0 0 300 400" width="300" height="400">
  <!-- Stylized representation of the profile photo shown in the screenshot -->
  <defs>
    <linearGradient id="bg-gradient" x1="0%" y1="0%" x2="100%" y2="100%">
      <stop offset="0%" style="stop-color:#9c27b0;stop-opacity:0.3" />
      <stop offset="100%" style="stop-color:#9c27b0;stop-opacity:0.1" />
    </linearGradient>
  </defs>
  
  <!-- Background -->
  <rect x="0" y="0" width="300" height="400" fill="url(#bg-gradient)"/>
  
  <!-- Body shape -->
  <rect x="75" y="200" width="150" height="180" rx="5" fill="#9c27b0" opacity="0.2"/>
  
  <!-- Shoulders -->
  <rect x="75" y="200" width="150" height="40" rx="20" fill="#9c27b0" opacity="0.4"/>
  
  <!-- Purple shirt simulation -->
  <rect x="95" y="200" width="110" height="130" fill="#9c27b0" opacity="0.6"/>
  
  <!-- Face shape -->
  <ellipse cx="150" cy="130" rx="70" ry="85" fill="#f8d8c7"/>
  
  <!-- Hair -->
  <ellipse cx="150" cy="95" rx="65" ry="50" fill="#3d3d3d"/>
  <rect x="85" y="95" width="130" height="50" fill="#3d3d3d"/>
  <path d="M85,95 Q110,140 150,130 Q190,140 215,95 Z" fill="#3d3d3d"/>
  
  <!-- Glasses -->
  <rect x="105" y="120" width="90" height="25" rx="5" fill="none" stroke="#666" stroke-width="2"/>
  <rect x="105" y="120" width="40" height="25" rx="5" fill="none" stroke="#666" stroke-width="2"/>
  <rect x="155" y="120" width="40" height="25" rx="5" fill="none" stroke="#666" stroke-width="2"/>
  <line x1="145" y1="132" x2="155" y2="132" stroke="#666" stroke-width="2"/>
  
  <!-- Eyes behind glasses -->
  <ellipse cx="125" cy="132" rx="8" ry="6" fill="#333"/>
  <ellipse cx="175" cy="132" rx="8" ry="6" fill="#333"/>
  
  <!-- Mouth -->
  <path d="M130,170 Q150,180 170,170" fill="none" stroke="#333" stroke-width="2"/>
</svg>
